<?xml version="1.0" encoding="UTF-8" standalone="no"?>
<svg
   xmlns:dc="http://purl.org/dc/elements/1.1/"
   xmlns:cc="http://creativecommons.org/ns#"
   xmlns:rdf="http://www.w3.org/1999/02/22-rdf-syntax-ns#"
   xmlns:svg="http://www.w3.org/2000/svg"
   xmlns="http://www.w3.org/2000/svg"
   id="svg54"
   version="1.1"
   viewBox="0 0 216 67"
   height="67mm"
   width="216mm">
  <defs
     id="defs48" />
  <metadata
     id="metadata51">
    <rdf:RDF>
      <cc:Work
         rdf:about="">
        <dc:format>image/svg+xml</dc:format>
        <dc:type
           rdf:resource="http://purl.org/dc/dcmitype/StillImage" />
        <dc:title></dc:title>
      </cc:Work>
    </rdf:RDF>
  </metadata>
  <g
     transform="translate(0,-230)"
     id="layer1">
    <g
       id="layer1-5"
       transform="translate(-49.999965,50.00012)">
      <path
         style="fill:#ffffff;fill-opacity:1;stroke:#ffffff;stroke-width:3;stroke-linecap:round;stroke-linejoin:round;stroke-miterlimit:4;stroke-dasharray:none;stroke-opacity:1"
         d="m 51.5,181.49976 v 1.00046 h 6.75049 l 23.24975,30.99966 v 31.00018 H 75.50009 V 245.5 h 27.99984 v -0.99994 h -5.99964 v -31.00018 l 23.24923,-30.99966 h 18.15652 l 2.09393,5.15369 -23.09369,56.84615 h -7.40626 V 245.5 h 8.00003 l 9.74979,-24.00009 h 26.50019 l 9.7503,24.00009 h 0.99994 14.9996 8.00004 0.99994 l 6.93343,-55.46691 19.06653,55.46638 V 245.5 h 5.3e-4 1.99988 l 18.10329,-55.17286 6.89673,55.17286 h 16.00006 5.99963 v -0.99994 h -6.1247 l -7.87497,-63.0003 h -16.00007 -6.00014 v 1.00046 h 6.12521 l 0.6749,5.39915 -11.80032,34.32711 -13.99966,-40.7262 h -12.00031 v -5.2e-4 h -0.99994 v 5.2e-4 h -2.99981 -6.00015 v 0.99994 h 6.34379 l 1.85623,5.39967 -7.07502,56.60017 h -8.53127 l -25.59378,-63.0003 h -8.00003 -8.00003 -17.99994 L 97.00006,212.83273 73.50021,181.49976 H 57.50015 Z m 90.0002,7.38456 12.84365,31.61565 h -25.68784 z"
         id="path884" />
    </g>
  </g>
</svg>
